{
  "accessors": [
    {
      "bufferView": 2,
      "componentType": 5126,
      "count": 3673,
      "max": [
        11.833666801452637,
        10.321723937988281,
        175.8461151123047
      ],
      "min": [
        -10.09963321685791,
        -10.493633270263672,
        144.40606689453125
      ],
      "type": "VEC3"
    },
    {
      "bufferView": 2,
      "byteOffset": 44076,
      "componentType": 5126,
      "count": 3673,
      "max": [
        0.9999967813491821,
        0.9996951222419739,
        0.9988056421279907
      ],
      "min": [
        -0.9999685287475586,
        -0.998713493347168,
        -0.7118556499481201
      ],
      "type": "VEC3"
    },
    {
      "bufferView": 3,
      "componentType": 5126,
      "count": 3673,
      "max": [
        0.9996005892753601,
        0.999849259853363,
        0.999123752117157,
        1.0
      ],
      "min": [
        -0.9997124671936035,
        -0.999566376209259,
        -0.9681715965270996,
        -1.0
      ],
      "type": "VEC4"
    },
    {
      "bufferView": 1,
      "componentType": 5126,
      "count": 3673,
      "max": [
        0.9656429886817932,
        0.997717022895813
      ],
      "min": [
        0.001744000008329749,
        0.0014169999631121755
      ],
      "type": "VEC2"
    },
    {
      "bufferView": 0,
      "componentType": 5125,
      "count": 13335,
      "type": "SCALAR"
    },
    {
      "bufferView": 2,
      "byteOffset": 88152,
      "componentType": 5126,
      "count": 587,
      "max": [
        33.57979202270508,
        11.757063865661621,
        148.58116149902344
      ],
      "min": [
        -33.62467956542969,
        -11.621891975402832,
        94.21549987792969
      ],
      "type": "VEC3"
    },
    {
      "bufferView": 2,
      "byteOffset": 95196,
      "componentType": 5126,
      "count": 587,
      "max": [
        0.995304524898529,
        0.9995927810668945,
        0.9994563460350037
      ],
      "min": [
        -0.9982452392578125,
        -0.998170018196106,
        -0.9997830986976624
      ],
      "type": "VEC3"
    },
    {
      "bufferView": 3,
      "byteOffset": 58768,
      "componentType": 5126,
      "count": 587,
      "max": [
        0.9996997714042664,
        0.9995478987693787,
        0.971271276473999,
        1.0
      ],
      "min": [
        -0.9997336864471436,
        -0.9994605779647827,
        -0.9825260043144226,
        1.0
      ],
      "type": "VEC4"
    },
    {
      "bufferView": 1,
      "byteOffset": 29384,
      "componentType": 5126,
      "count": 587,
      "max": [
        0.9841300249099731,
        0.9814800024032593
      ],
      "min": [
        0.017969999462366104,
        0.013159999623894691
      ],
      "type": "VEC2"
    },
    {
      "bufferView": 0,
      "byteOffset": 53340,
      "componentType": 5125,
      "count": 2622,
      "type": "SCALAR"
    },
    {
      "bufferView": 2,
      "byteOffset": 102240,
      "componentType": 5126,
      "count": 1700,
      "max": [
        16.76738739013672,
        14.097835540771484,
        112.2179946899414
      ],
      "min": [
        -16.243392944335938,
        -10.761631965637207,
        14.235511779785156
      ],
      "type": "VEC3"
    },
    {
      "bufferView": 2,
      "byteOffset": 122640,
      "componentType": 5126,
      "count": 1700,
      "max": [
        0.9997117519378662,
        0.9998658895492554,
        0.9980097413063049
      ],
      "min": [
        -0.999751627445221,
        -0.9998142123222351,
        -0.9964133501052856
      ],
      "type": "VEC3"
    },
    {
      "bufferView": 3,
      "byteOffset": 68160,
      "componentType": 5126,
      "count": 1700,
      "max": [
        0.9999980330467224,
        0.9998162388801575,
        0.9840608239173889,
        1.0
      ],
      "min": [
        -0.9999083280563354,
        -0.999672532081604,
        -0.9700993299484253,
        -1.0
      ],
      "type": "VEC4"
    },
    {
      "bufferView": 1,
      "byteOffset": 34080,
      "componentType": 5126,
      "count": 1700,
      "max": [
        0.9939879775047302,
        0.994035005569458
      ],
      "min": [
        0.006955999881029129,
        0.019139999523758888
      ],
      "type": "VEC2"
    },
    {
      "bufferView": 0,
      "byteOffset": 63828,
      "componentType": 5125,
      "count": 8556,
      "type": "SCALAR"
    },
    {
      "bufferView": 2,
      "byteOffset": 143040,
      "componentType": 5126,
      "count": 9255,
      "max": [
        83.56474304199219,
        11.296539306640625,
        173.31971740722656
      ],
      "min": [
        -83.57359313964844,
        -13.182395935058594,
        0.005683999974280596
      ],
      "type": "VEC3"
    },
    {
      "bufferView": 2,
      "byteOffset": 254100,
      "componentType": 5126,
      "count": 9255,
      "max": [
        0.999770998954773,
        0.9999516606330872,
        0.9999573826789856
      ],
      "min": [
        -0.999768853187561,
        -0.9999843835830688,
        -0.9999902248382568
      ],
      "type": "VEC3"
    },
    {
      "bufferView": 1,
      "byteOffset": 47680,
      "componentType": 5126,
      "count": 9255,
      "max": [
        0.9924700260162354,
        0.9982979893684387
      ],
      "min": [
        0.004989999812096357,
        0.011859999969601631
      ],
      "type": "VEC2"
    },
    {
      "bufferView": 0,
      "byteOffset": 98052,
      "componentType": 5125,
      "count": 48180,
      "type": "SCALAR"
    }
  ],
  "asset": {
    "extras": {
      "author": "LokitoBlu (https://sketchfab.com/martinezequielgorno)",
      "license": "CC-BY-4.0 (http://creativecommons.org/licenses/by/4.0/)",
      "source": "https://sketchfab.com/3d-models/zombie-female-1-ce037bf3c08e40eea92df46e4ec32b16",
      "title": "Zombie (Female 1)"
    },
    "generator": "Sketchfab-14.96.0",
    "version": "2.0"
  },
  "bufferViews": [
    {
      "buffer": 0,
      "byteLength": 290772,
      "name": "floatBufferViews",
      "target": 34963
    },
    {
      "buffer": 0,
      "byteLength": 121720,
      "byteOffset": 290772,
      "byteStride": 8,
      "name": "floatBufferViews",
      "target": 34962
    },
    {
      "buffer": 0,
      "byteLength": 365160,
      "byteOffset": 412492,
      "byteStride": 12,
      "name": "floatBufferViews",
      "target": 34962
    },
    {
      "buffer": 0,
      "byteLength": 95360,
      "byteOffset": 777652,
      "byteStride": 16,
      "name": "floatBufferViews",
      "target": 34962
    }
  ],
  "buffers": [
    {
      "byteLength": 873012,
      "uri": "scene.bin"
    }
  ],
  "extensionsUsed": [
    "KHR_materials_specular"
  ],
  "images": [
    {
      "uri": "textures/Body_baseColor.png"
    },
    {
      "uri": "textures/Body_metallicRoughness.png"
    },
    {
      "uri": "textures/Body_specularf0.png"
    },
    {
      "uri": "textures/Bottom_baseColor.png"
    },
    {
      "uri": "textures/Bottom_metallicRoughness.png"
    },
    {
      "uri": "textures/Bottom_normal.png"
    },
    {
      "uri": "textures/Bottom_specularf0.png"
    },
    {
      "uri": "textures/Hair_baseColor.png"
    },
    {
      "uri": "textures/Hair_metallicRoughness.png"
    },
    {
      "uri": "textures/Hair_normal.png"
    },
    {
      "uri": "textures/Hair_specularf0.png"
    },
    {
      "uri": "textures/material_baseColor.png"
    },
    {
      "uri": "textures/material_metallicRoughness.png"
    },
    {
      "uri": "textures/material_normal.png"
    },
    {
      "uri": "textures/material_specularf0.png"
    }
  ],
  "materials": [
    {
      "alphaMode": "BLEND",
      "doubleSided": true,
      "extensions": {
        "KHR_materials_specular": {
          "specularColorFactor": [
            1.0,
            1.0,
            1.0
          ],
          "specularFactor": 1.0,
          "specularTexture": {
            "index": 2
          }
        }
      },
      "name": "Body",
      "pbrMetallicRoughness": {
        "baseColorTexture": {
          "index": 0
        },
        "metallicFactor": 0.3786259541984733,
        "metallicRoughnessTexture": {
          "index": 1
        }
      }
    },
    {
      "doubleSided": true,
      "extensions": {
        "KHR_materials_specular": {
          "specularColorFactor": [
            1.0,
            1.0,
            1.0
          ],
          "specularFactor": 1.0,
          "specularTexture": {
            "index": 6
          }
        }
      },
      "name": "Bottom",
      "normalTexture": {
        "index": 5
      },
      "pbrMetallicRoughness": {
        "baseColorTexture": {
          "index": 3
        },
        "metallicFactor": 0.13435114503816795,
        "metallicRoughnessTexture": {
          "index": 4
        }
      }
    },
    {
      "alphaMode": "BLEND",
      "doubleSided": true,
      "extensions": {
        "KHR_materials_specular": {
          "specularColorFactor": [
            1.0,
            1.0,
            1.0
          ],
          "specularFactor": 1.0,
          "specularTexture": {
            "index": 10
          }
        }
      },
      "name": "Hair",
      "normalTexture": {
        "index": 9
      },
      "pbrMetallicRoughness": {
        "baseColorTexture": {
          "index": 7
        },
        "metallicRoughnessTexture": {
          "index": 8
        }
      }
    },
    {
      "doubleSided": true,
      "extensions": {
        "KHR_materials_specular": {
          "specularColorFactor": [
            1.0,
            1.0,
            1.0
          ],
          "specularFactor": 1.0,
          "specularTexture": {
            "index": 14
          }
        }
      },
      "name": "material",
      "normalTexture": {
        "index": 13
      },
      "pbrMetallicRoughness": {
        "baseColorTexture": {
          "index": 11
        },
        "metallicFactor": 0.2564885496183206,
        "metallicRoughnessTexture": {
          "index": 12
        }
      }
    }
  ],
  "meshes": [
    {
      "name": "Object_0",
      "primitives": [
        {
          "attributes": {
            "NORMAL": 1,
            "POSITION": 0,
            "TANGENT": 2,
            "TEXCOORD_0": 3
          },
          "indices": 4,
          "material": 2,
          "mode": 4
        }
      ]
    },
    {
      "name": "Object_1",
      "primitives": [
        {
          "attributes": {
            "NORMAL": 6,
            "POSITION": 5,
            "TANGENT": 7,
            "TEXCOORD_0": 8
          },
          "indices": 9,
          "material": 3,
          "mode": 4
        }
      ]
    },
    {
      "name": "Object_2",
      "primitives": [
        {
          "attributes": {
            "NORMAL": 11,
            "POSITION": 10,
            "TANGENT": 12,
            "TEXCOORD_0": 13
          },
          "indices": 14,
          "material": 1,
          "mode": 4
        }
      ]
    },
    {
      "name": "Object_3",
      "primitives": [
        {
          "attributes": {
            "NORMAL": 16,
            "POSITION": 15,
            "TEXCOORD_0": 17
          },
          "indices": 18,
          "material": 0,
          "mode": 4
        }
      ]
    }
  ],
  "nodes": [
    {
      "children": [
        1
      ],
      "matrix": [
        1.0,
        0.0,
        0.0,
        0.0,
        0.0,
        2.220446049250313e-16,
        -1.0,
        0.0,
        0.0,
        1.0,
        2.220446049250313e-16,
        0.0,
        0.0,
        0.0,
        0.0,
        1.0
      ],
      "name": "Sketchfab_model"
    },
    {
      "children": [
        2,
        3,
        4,
        5
      ],
      "name": "Zombie (Female 1).obj.cleaner.materialmerger.gles"
    },
    {
      "mesh": 0,
      "name": "Object_2"
    },
    {
      "mesh": 1,
      "name": "Object_3"
    },
    {
      "mesh": 2,
      "name": "Object_4"
    },
    {
      "mesh": 3,
      "name": "Object_5"
    }
  ],
  "samplers": [
    {
      "magFilter": 9729,
      "minFilter": 9987,
      "wrapS": 10497,
      "wrapT": 10497
    }
  ],
  "scene": 0,
  "scenes": [
    {
      "name": "Sketchfab_Scene",
      "nodes": [
        0
      ]
    }
  ],
  "textures": [
    {
      "sampler": 0,
      "source": 0
    },
    {
      "sampler": 0,
      "source": 1
    },
    {
      "sampler": 0,
      "source": 2
    },
    {
      "sampler": 0,
      "source": 3
    },
    {
      "sampler": 0,
      "source": 4
    },
    {
      "sampler": 0,
      "source": 5
    },
    {
      "sampler": 0,
      "source": 6
    },
    {
      "sampler": 0,
      "source": 7
    },
    {
      "sampler": 0,
      "source": 8
    },
    {
      "sampler": 0,
      "source": 9
    },
    {
      "sampler": 0,
      "source": 10
    },
    {
      "sampler": 0,
      "source": 11
    },
    {
      "sampler": 0,
      "source": 12
    },
    {
      "sampler": 0,
      "source": 13
    },
    {
      "sampler": 0,
      "source": 14
    }
  ]
}
